<svg width="782" height="784" viewBox="0 0 782 784" fill="none" xmlns="http://www.w3.org/2000/svg">
<rect width="781" height="783" rx="221" fill="white"/>
<path d="M174.533 1.36818C151.733 3.10151 124.933 10.5682 104.667 20.5682C79.7333 33.1015 52.8 56.3015 36.1333 79.9015C25.2 95.3682 12.6667 120.568 8 136.702C0 164.168 0.266667 156.835 0.133333 389.901L0 603.235L3.6 617.501C5.6 625.368 9.46667 637.768 12.1333 644.835C18 660.568 32.1333 688.168 40 699.235C51.4667 715.235 75.3333 736.035 94.9333 747.368C100.267 750.435 104.133 753.368 103.6 753.901C103.067 754.568 103.467 754.568 104.267 754.035C105.2 753.501 107.333 753.901 108.933 754.835C110.667 755.768 112.4 756.301 113.067 756.168C113.6 756.035 114 756.435 114 757.101C114 757.768 114.933 758.701 116.133 759.101C117.2 759.501 117.867 759.368 117.467 758.701C117.067 758.168 118.8 758.568 121.2 759.768C123.733 760.968 125.467 762.301 125.067 762.835C124.8 763.501 125.2 763.901 125.867 763.901C126.667 763.901 127.333 763.368 127.333 762.568C127.333 761.901 128.267 761.635 129.333 762.035C130.4 762.568 130.933 763.501 130.4 764.301C130 765.101 130.267 765.235 131.067 764.701C132 764.168 138.533 764.968 145.6 766.568C168.133 771.368 180.933 772.968 192.933 772.701C200.267 772.435 204.8 772.835 205.2 773.768C205.6 774.701 205.867 774.568 205.867 773.635C206 772.301 234.667 771.901 336.533 771.901C459.467 771.901 467.067 772.035 468.133 774.301C468.667 775.501 468.933 777.101 468.8 777.635C468.8 778.168 469.867 779.901 471.333 781.501C472.8 783.101 474 783.768 474 782.968C474 782.168 473.2 780.835 472.133 780.035C471.067 779.101 470.533 777.235 471.067 775.635C471.467 773.768 471.2 773.101 470.267 773.768C469.333 774.301 468.667 774.168 468.667 773.368C468.667 772.435 486.4 772.035 520.667 771.901C566.133 771.901 572.8 772.168 573.467 773.901C574 774.968 574.8 775.901 575.6 775.901C576.267 775.901 576.533 775.368 576 774.701C575.6 773.901 576.4 773.501 577.6 773.501C578.933 773.635 582.8 773.235 586.4 772.568C592 771.768 592.667 771.901 592.667 774.035C592.667 776.168 592.933 776.301 594 774.568C595.2 772.835 595.467 772.835 596.667 774.568C597.733 776.301 598 776.301 598 774.435C598 772.835 601.333 771.901 614.4 770.035C650.4 765.101 682.267 752.835 705.333 735.235C711.467 730.568 716.8 727.101 717.067 727.635C717.333 728.168 717.333 727.901 717.2 726.968C716.933 726.168 720.533 721.901 725.067 717.768C729.6 713.501 736 706.835 739.2 702.701C742.4 698.568 745.6 695.368 746.267 695.635C746.933 695.768 747.2 695.368 746.667 694.568C746.267 693.901 746.933 691.635 748.4 689.501C759.733 673.368 776.4 630.301 779.2 609.235C780.133 602.701 780.8 524.835 780.933 387.235C781.2 176.035 781.2 175.235 778.267 159.902C768 104.302 739.333 59.9015 694 29.6348C673.6 16.0348 653.733 8.30151 624 2.56818C611.067 0.0348449 603.867 -0.0984885 399.333 0.0348449C283.067 0.168178 182 0.701511 174.533 1.36818ZM618.133 23.3682C637.733 26.9682 648.933 30.5682 662.667 37.2348C701.733 56.1682 732 89.1015 748.533 130.702C750.8 136.168 754.133 148.568 756.133 158.035L759.867 175.235L759.467 387.235C759.067 593.235 759.067 599.635 756.4 612.568C752.8 631.101 748.533 643.501 740 660.568C717.067 706.568 681.2 733.101 622.667 747.501C614.133 749.635 596.267 749.768 398.667 750.168C167.333 750.701 171.467 750.701 144 743.768C100.667 732.701 62.1333 701.635 41.0667 660.435C37.3333 653.101 32.1333 641.101 29.4667 633.501C20 606.168 20.5333 622.568 20.9333 385.901C21.3333 184.968 21.4667 171.768 23.7333 159.902C30.8 124.035 42.8 100.168 66.6667 74.9682C94.8 45.2348 128.8 27.7682 168.667 22.7015C173.467 22.0348 274 21.5015 392.133 21.3682C582.533 21.2348 608.267 21.5015 618.133 23.3682Z" fill="black"/>
<path d="M318 70.168C311.467 71.368 293.2 79.1014 286.133 83.5014C266.533 96.0347 250.133 118.835 244.533 141.235C243.6 145.235 242.8 154.301 242.667 161.235C242.667 180.968 249.467 199.768 262.667 216.301C268.8 224.035 279.2 232.701 284 233.901C286.667 234.701 286.667 235.901 286.933 287.901C287.2 317.235 286.933 341.235 286.667 341.235C286.267 341.235 279.333 335.235 271.067 327.768C247.2 306.435 237.6 302.035 214 302.035C202.133 301.901 198.933 302.301 193.333 304.968C183.067 309.635 178.4 313.235 172.667 320.701C165.2 330.568 163.067 336.435 162.933 347.235C162.933 365.501 166.8 372.435 186.4 388.835C193.333 394.568 202.133 402.968 206 407.235C215.333 417.901 229.867 440.168 244.133 465.235C276.4 522.301 295.867 550.301 317.733 570.435C329.6 581.635 331.333 583.768 332 588.435C332.4 591.501 332.933 613.901 333.2 638.435L333.467 682.968L337.2 686.035C343.733 691.768 352.933 689.635 354.667 682.168C355.067 680.568 355.2 655.501 355.067 626.701L354.667 574.035L344.267 566.168C333.333 557.768 318.8 542.968 309.467 530.568C300.533 518.968 274.933 476.968 259.333 448.435C250.533 432.435 235.2 409.635 226.267 399.368L218.267 390.168L225.6 381.501C237.867 366.968 240.267 358.968 235.333 348.168C232 340.701 220 328.168 213.6 325.235C208.533 322.968 208.533 322.835 211.867 322.035C226.133 318.435 248.4 332.035 270.667 357.768C275.067 362.835 280.667 368.168 283.067 369.635L287.333 372.168V413.635C287.333 444.435 287.867 456.168 289.067 458.568C291.467 463.235 299.333 465.101 303.867 462.168L307.2 459.901L306.667 308.968C306.4 214.701 306.667 156.035 307.467 152.835C309.2 146.435 317.067 137.501 324 134.435C341.467 126.435 358 137.101 363.333 159.768C364.533 165.101 365.2 192.835 365.867 265.635L366.667 364.168L370.533 367.501C375.067 371.368 379.467 370.835 385.067 365.501L388.667 362.035V321.635C388.667 284.435 388.933 280.701 391.2 276.168C398.8 261.235 415.333 256.968 428.933 266.301C432.933 269.101 436.133 272.701 438.267 276.835C441.2 283.101 441.333 284.301 441.733 321.901C441.867 343.101 442.267 361.901 442.667 363.501C444.4 371.235 452.533 372.968 458.533 366.701L462.267 362.701L462.133 330.835C462.133 311.235 462.533 297.235 463.467 294.835C465.467 289.235 475.333 280.435 481.867 278.435C492.133 275.368 505.733 281.901 512.267 292.835L516 299.235L516.667 332.701C517.333 368.435 517.6 369.501 524.4 372.035C528 373.368 532.133 371.768 535.6 367.368C537.6 364.968 538 361.235 538 340.301V316.035L542 311.368C553.733 298.035 572.267 301.501 579.733 318.568C582.267 324.301 582.4 327.368 582.133 405.501C581.867 494.035 581.867 493.635 573.867 509.501C568 521.235 556 538.301 543.467 553.235C528.533 570.968 527.6 572.835 530 580.835C531.6 586.035 532 597.101 532 636.968V686.835L535.2 689.368C539.6 692.968 550.4 692.835 554 689.235C555.467 687.768 556.667 685.768 556.8 684.835C556.8 684.035 557.067 661.901 557.2 635.901C557.333 601.235 556.933 586.701 555.733 581.501C553.6 572.968 554.133 571.901 564.133 560.701C570.933 553.235 588.667 528.035 588.667 525.901C588.667 525.368 591.2 520.035 594.133 514.035C604 494.835 603.6 498.568 604.267 412.301C604.8 356.701 604.533 332.035 603.333 325.368C600.267 307.235 590.267 292.835 576 286.301C566.667 282.035 548.133 282.035 539.467 286.301C536.133 287.901 533.333 289.235 533.2 289.235C532.933 289.235 531.6 286.701 530.267 283.501C523.067 267.368 506.267 257.235 486.8 257.235C476.667 257.235 470 259.101 462.267 263.901L456.267 267.635L451.067 259.901C438.8 241.368 411.333 234.168 394 244.968C390.267 247.368 386.933 249.235 386.667 249.235C386.4 249.235 386.4 245.501 386.8 240.835C387.333 235.235 388.267 232.168 389.733 231.235C400 224.835 417.733 201.635 423.467 187.101C427.6 176.301 428.4 156.168 425.333 140.968C419.867 113.768 401.867 91.368 374.667 78.0347C361.467 71.6347 350.267 69.2347 334.533 69.368C327.333 69.5014 319.867 69.9014 318 70.168ZM356 91.2347C368.4 94.3014 386 107.768 394.133 120.168C400.533 130.168 404.267 139.901 406.133 151.901C408.8 169.768 402.933 190.701 392.133 201.101L387.333 205.768L387.2 201.101C387.2 198.701 386.667 185.768 386.133 172.568C385.2 150.168 384.933 148.035 381.467 140.968C374 125.768 361.733 116.035 345.467 112.701C334.8 110.435 324.933 111.501 315.733 116.035C306.4 120.568 294.667 132.835 289.867 143.101L285.733 151.901L286.267 179.901C286.533 200.035 286.267 207.901 285.2 207.901C282.667 207.901 273.067 196.701 269.6 189.635C264.533 179.768 262.933 169.901 263.6 154.968C264.8 130.968 274 115.235 294.8 101.368C305.6 94.168 313.6 90.968 325.333 89.5014C333.2 88.568 348.267 89.368 356 91.2347ZM208.8 341.368C212.933 346.835 216.667 352.968 217.2 354.968C218.4 359.768 215.2 366.035 208.667 371.635L203.6 375.901L196.133 369.635C188.133 363.101 182 354.301 182 349.501C182 342.968 186.4 335.635 192.533 331.635C197.467 328.568 198.933 328.168 200 329.635C200.667 330.568 204.667 335.901 208.8 341.368Z" fill="black"/>
<path d="M165.867 144.568C160.533 147.501 158.8 152.435 161.467 157.901C165.067 165.635 165.733 165.768 187.467 165.635C198.4 165.501 208.533 165.101 209.867 164.568C211.333 164.168 213.467 161.635 214.667 159.101C216.533 155.101 216.667 153.635 215.2 150.435C212.533 143.768 208.267 142.568 187.733 142.568C174.667 142.701 168.4 143.235 165.867 144.568Z" fill="black"/>
<path d="M470.533 143.501C459.733 143.901 457.867 144.435 454.8 147.235C452.933 148.968 451.333 151.635 451.333 153.235C451.333 157.635 454.933 163.635 458.267 164.701C460 165.235 469.467 165.501 479.333 165.368L497.333 165.101L501.733 160.568C504 158.035 506 154.968 506 153.768C506 152.568 504 149.635 501.467 147.101C497.333 142.968 496.267 142.568 489.867 142.835C485.867 142.968 477.2 143.368 470.533 143.501Z" fill="black"/>
<path d="M610.667 599.368C603.2 602.035 592.667 611.635 588.133 619.901C582.4 630.435 582.667 640.835 589.333 654.035C596.8 669.101 606.667 675.235 624 675.101C645.6 674.968 665.2 653.768 662.667 633.235C661.467 622.835 657.867 615.635 650.267 608.035C645.467 603.235 641.733 600.835 636.533 599.368C628 596.835 617.867 596.835 610.667 599.368ZM632.4 618.568C639.733 623.101 643.867 634.968 640.667 643.101C638.133 650.035 634.667 651.901 625.2 651.901C614.933 651.901 612.533 650.835 608.667 644.435C605.867 640.035 605.733 639.101 607.2 632.435C609.467 622.435 615.6 615.901 622.8 615.901C625.733 615.901 630 617.101 632.4 618.568Z" fill="black"/>
<path d="M328.667 282.168C324.133 285.235 323.333 286.568 323.333 291.501C323.333 297.501 328.4 301.235 336.667 301.235C341.467 301.235 343.6 300.568 345.733 298.168C354.8 288.568 339.867 274.568 328.667 282.168Z" fill="black"/>
<path d="M410.4 363.368C405.067 366.035 401.333 373.368 403.333 377.101C407.333 384.701 417.333 386.168 423.467 380.035C429.733 373.768 428.267 365.501 420.533 362.701C415.2 360.835 415.6 360.835 410.4 363.368Z" fill="black"/>
<path d="M482.267 366.968C480.667 368.701 478.933 371.901 478.533 374.168C477.867 377.635 478.4 379.101 481.067 381.768C487.6 388.301 503.333 385.368 503.333 377.901C503.333 374.035 499.6 366.835 496.933 365.368C492.267 362.835 485.467 363.635 482.267 366.968Z" fill="black"/>
<path d="M555.333 371.901C548.133 379.101 556.933 388.701 566.133 383.901C571.6 380.968 567.733 369.235 561.2 369.235C559.467 369.235 556.8 370.435 555.333 371.901Z" fill="black"/>
</svg>
